<?xml version="1.0" encoding="iso-8859-1"?>
<!-- Uploaded to: SVG Repo, www.svgrepo.com, Generator: SVG Repo Mixer Tools -->
<svg fill="#000000" height="800px" width="800px" version="1.1" id="Layer_1" xmlns="http://www.w3.org/2000/svg" xmlns:xlink="http://www.w3.org/1999/xlink" 
	 viewBox="0 0 512.001 512.001" xml:space="preserve">
<g>
	<g>
		<path d="M412.406,81.368V16.715c0-13.301-14.843-21.254-25.917-13.917l-37.912,25.123L313.388,3.077
			c-2.817-1.989-6.18-3.056-9.629-3.056h-95.518c-3.449,0-6.812,1.067-9.629,3.056l-35.192,24.845L125.51,2.798
			C114.421-4.548,99.593,3.43,99.593,16.715v64.653c-15.869,4.927-27.427,19.745-27.427,37.213v111.475
			c0,17.467,11.557,32.286,27.427,37.213c0,7.202,0,172.891,0,180.042c0,4.988,2.266,9.613,5.815,12.663l55.856,47.995
			c3.027,2.602,6.887,4.032,10.88,4.032h167.714c3.992,0,7.853-1.43,10.88-4.032l55.856-47.995
			c3.746-3.219,5.815-7.941,5.815-12.663c0-7.153,0-172.84,0-180.042c15.869-4.927,27.427-19.745,27.427-37.213V118.581
			C439.833,101.114,428.275,86.296,412.406,81.368z M158.54,403.35v-31.321c0-9.22,7.475-16.695,16.695-16.695
			s16.695,7.475,16.695,16.695v31.321c0,9.22-7.475,16.695-16.695,16.695S158.54,412.57,158.54,403.35z M333.668,478.61H178.331
			l-16.997-14.605h189.331L333.668,478.61z M212.383,403.35v-31.321c0-9.22,7.475-16.695,16.695-16.695s16.695,7.475,16.695,16.695
			v31.321c0,9.22-7.475,16.695-16.695,16.695S212.383,412.57,212.383,403.35z M266.227,403.35v-31.321
			c0-9.22,7.475-16.695,16.695-16.695s16.695,7.475,16.695,16.695v31.321c0,9.22-7.475,16.695-16.695,16.695
			S266.227,412.57,266.227,403.35z M353.46,403.35c0,9.22-7.475,16.695-16.695,16.695c-9.22,0-16.695-7.475-16.695-16.695v-31.321
			c0-9.22,7.475-16.695,16.695-16.695c9.22,0,16.695,7.475,16.695,16.695V403.35z M379.017,311.374h-0.001H132.983V269.01h246.034
			V311.374z M142.686,196.915v-45.193c0-9.22,7.475-16.695,16.695-16.695s16.695,7.475,16.695,16.695v45.193
			c0,9.22-7.475,16.695-16.695,16.695S142.686,206.137,142.686,196.915z M207.099,196.915v-45.193
			c0-9.22,7.475-16.695,16.695-16.695s16.695,7.475,16.695,16.695v45.193c0,9.22-7.475,16.695-16.695,16.695
			S207.099,206.137,207.099,196.915z M271.511,196.915v-45.193c0-9.22,7.475-16.695,16.695-16.695
			c9.22,0,16.695,7.475,16.695,16.695v45.193c0,9.22-7.475,16.695-16.695,16.695S271.511,206.137,271.511,196.915z M335.924,196.915
			v-45.193c0-9.22,7.475-16.695,16.695-16.695s16.695,7.475,16.695,16.695v45.193c0,9.22-7.475,16.695-16.695,16.695
			S335.924,206.136,335.924,196.915z M379.017,79.626H132.983v-31.82l21.515,14.259c5.741,3.804,13.228,3.692,18.852-0.278
			l40.19-28.376h84.919l40.19,28.376c5.624,3.969,13.109,4.084,18.852,0.278l21.515-14.259V79.626z"/>
	</g>
</g>
</svg>